# xmcd
#
# Track frame offsets: 
#        150
#        19226
#        41784
#        68154
#        91297
#        108843
#        129650
#        148006
#        167206
#        187215
#        203855
#        222408
#        239563
#        266152
#        281735
#        301776
#        316505
#
# Disc length: 4532 seconds
#
# Revision: 0
# Processed by: cddbd v1.5.2PL0 Copyright (c) Steve Scherf et al.
# Submitted via: ExactAudioCopy v0.95a5
#
DISCID=0511b211
DTITLE=Peter Lovsin - Vse Najboljse
DYEAR=2005
DGENRE=Blues
TTITLE0=Hisa nasprot sonca
TTITLE1=marija pomagaj mi
TTITLE2=Greva punca v juzne kraje
TTITLE3=Ko so cesnje cvetele
TTITLE4=Julita
TTITLE5=ukradeni spomini
TTITLE6=V ritmu lipovega lista
TTITLE7=Cist nor
TTITLE8=Moja mama je strela
TTITLE9=Najboljsi par
TTITLE10=ena druga punca
TTITLE11=tole je zate
TTITLE12=Sodni dan
TTITLE13=Svrsimo zajedno
TTITLE14=dijete
TTITLE15=adijo ljubljana
TTITLE16=Oglas se se kdaj
EXTD=
EXTT0=
EXTT1=
EXTT2=
EXTT3=
EXTT4=
EXTT5=
EXTT6=
EXTT7=
EXTT8=
EXTT9=
EXTT10=
EXTT11=
EXTT12=
EXTT13=
EXTT14=
EXTT15=
EXTT16=
PLAYORDER=
